<svg xmlns="http://www.w3.org/2000/svg" width="64" height="64" xml:space="preserve"><path fill="#545C66" d="M44 5H20c-2.76 0-5 2.24-5 5v47.002c0 3.3 2.7 6 6 6h22c3.3 0 6-2.7 6-6V10c0-2.76-2.24-5-5-5z"/><path fill="#656D78" d="M44 .998H20c-2.76 0-5 2.24-5 5v47c0 3.3 2.7 6 6 6h22c3.3 0 6-2.7 6-6v-47c0-2.76-2.24-5-5-5z"/><path fill="#E6E9ED" d="M15 6.998h34v44H15z"/><path fill="#AAB2BD" d="M32 52.998a2 2 0 1 1 .001 4.001A2 2 0 0 1 32 52.998z"/><g><circle fill="#FFCE54" cx="32" cy="20.002" r="4"/></g><g><path d="M43 60H21c-3.859 0-7-3.141-7-7a1 1 0 1 1 2 0c0 2.757 2.243 5 5 5h22c2.757 0 5-2.243 5-5a1 1 0 1 1 2 0c0 3.859-3.141 7-7 7zM29.03 5c-.553 0-1.005-.447-1.005-1s.442-1 .994-1h.011a1 1 0 1 1 0 2zM35 5h-3a1 1 0 1 1 0-2h3a1 1 0 1 1 0 2zM49 7.002a1 1 0 0 1-1-1c0-2.206-1.794-4-4-4a1 1 0 1 1 0-2c3.309 0 6 2.691 6 6a1 1 0 0 1-1 1zM15 7a1 1 0 0 1-1-1c0-3.309 2.691-6 6-6a1 1 0 1 1 0 2c-2.206 0-4 1.794-4 4a1 1 0 0 1-1 1z"/><path d="M44 2H20a1 1 0 1 1 0-2h24a1 1 0 1 1 0 2zM49 8.002H15a1 1 0 1 1 0-2h34a1 1 0 1 1 0 2z"/><g><path d="M43 64H21c-3.859 0-7-3.141-7-7V6a1 1 0 1 1 2 0v51c0 2.757 2.243 5 5 5h22c2.757 0 5-2.243 5-5V6.002a1 1 0 1 1 2 0V57c0 3.859-3.141 7-7 7z"/><path d="M49 52H15a1 1 0 1 1 0-2h34a1 1 0 1 1 0 2zM32 58c-1.654 0-3-1.346-3-3s1.346-3 3-3 3 1.346 3 3-1.346 3-3 3zm0-4a1 1 0 1 0 0 2 1 1 0 0 0 0-2z"/></g><g><path d="M32 25.002c-2.757 0-5-2.243-5-5s2.243-5 5-5 5 2.243 5 5-2.243 5-5 5zm0-8c-1.654 0-3 1.346-3 3s1.346 3 3 3 3-1.346 3-3-1.346-3-3-3zM32 13.999a1 1 0 0 1-1-1V11a1 1 0 1 1 2 0v1.999a1 1 0 0 1-1 1zM32 29.995a1 1 0 0 1-1-1v-1.999a1 1 0 1 1 2 0v1.999a1 1 0 0 1-1 1zM27.051 16.049a.997.997 0 0 1-.707-.293l-1.413-1.414a.999.999 0 1 1 1.414-1.414l1.413 1.414a.999.999 0 0 1-.707 1.707zM38.362 27.359a.997.997 0 0 1-.707-.293l-1.414-1.413a.999.999 0 1 1 1.414-1.414l1.414 1.413a.999.999 0 0 1-.707 1.707zM25.001 20.998h-2a1 1 0 1 1 0-2h2a1 1 0 1 1 0 2zM40.997 20.998h-1.999a1 1 0 1 1 0-2h1.999a1 1 0 1 1 0 2zM25.637 27.361a.999.999 0 0 1-.707-1.707l1.414-1.414a.999.999 0 1 1 1.414 1.414l-1.414 1.414a.995.995 0 0 1-.707.293zM36.948 16.05a.999.999 0 0 1-.707-1.707l1.414-1.413a.999.999 0 1 1 1.414 1.414l-1.414 1.413a.997.997 0 0 1-.707.293z"/></g><g><path d="M39 34h-2a1 1 0 1 1 0-2h2a1 1 0 1 1 0 2z"/><path d="M39 37a1 1 0 0 1-1-1v-3a1 1 0 1 1 2 0v3a1 1 0 0 1-1 1z"/><path d="M39 37h-2a1 1 0 1 1 0-2h2a1 1 0 1 1 0 2z"/><path d="M39.002 40a1 1 0 0 1-1-1v-3a1 1 0 1 1 2 0v3a1 1 0 0 1-1 1z"/><path d="M39 40h-2a1 1 0 1 1 0-2h2a1 1 0 1 1 0 2z"/><g><path d="M33.999 34h-2a1 1 0 1 1 0-2h2a1 1 0 1 1 0 2z"/><path d="M33.999 37a1 1 0 0 1-1-1v-3a1 1 0 1 1 2 0v3a1 1 0 0 1-1 1z"/><path d="M33.999 37h-2a1 1 0 1 1 0-2h2a1 1 0 1 1 0 2z"/><path d="M31.999 40a1 1 0 0 1-1-1v-3a1 1 0 1 1 2 0v3a1 1 0 0 1-1 1z"/><path d="M33.999 40h-2a1 1 0 1 1 0-2h2a1 1 0 1 1 0 2z"/></g><g><path d="M29 37h-4a1 1 0 1 1 0-2h4a1 1 0 1 1 0 2z"/></g><g><path d="M27 39a1 1 0 0 1-1-1v-4a1 1 0 1 1 2 0v4a1 1 0 0 1-1 1z"/></g></g><g><path d="M42.002 44.001H21.998a1 1 0 1 1 0-2h20.004a1 1 0 1 1 0 2z"/></g><g><path d="M36 47.001h-8a1 1 0 1 1 0-2h8a1 1 0 1 1 0 2z"/></g></g></svg>